<svg width="491" height="680" xmlns="http://www.w3.org/2000/svg" xmlns:xlink="http://www.w3.org/1999/xlink" overflow="hidden"><defs><clipPath id="clip0"><rect x="0" y="0" width="491" height="680"/></clipPath></defs><g clip-path="url(#clip0)"><rect x="0" y="0" width="491" height="680.128" fill="#FFFFFF"/><path d="M116 31.1728C116 27.7663 118.761 25.0048 122.167 25.0048L248.833 25.0048C252.239 25.0048 255 27.7663 255 31.1728L255 55.8437C255 59.2502 252.239 62.0117 248.833 62.0117L122.167 62.0117C118.761 62.0117 116 59.2502 116 55.8437Z" fill="#6899D0" fill-rule="evenodd"/><text fill="#FFFFFF" font-family="Times New Roman,Times New Roman_MSFontService,sans-serif" font-weight="400" font-size="17" transform="matrix(1 0 0 1.00019 136.309 50)">Hidden_states</text><path d="M38 87.1832C38 84.3291 40.3133 82.0154 43.1668 82.0154L99.8332 82.0154C102.687 82.0154 105 84.3291 105 87.1832L105 107.854C105 110.708 102.687 113.021 99.8332 113.021L43.1668 113.021C40.3133 113.021 38 110.708 38 107.854Z" fill="#E27F43" fill-rule="evenodd"/><text fill="#FFFFFF" font-family="Times New Roman,Times New Roman_MSFontService,sans-serif" font-weight="400" font-size="17" transform="matrix(1 0 0 1.00019 49.5182 104)">Query</text><path d="M152 87.1832C152 84.3291 154.313 82.0154 157.167 82.0154L213.833 82.0154C216.687 82.0154 219 84.3291 219 87.1832L219 107.854C219 110.708 216.687 113.021 213.833 113.021L157.167 113.021C154.313 113.021 152 110.708 152 107.854Z" fill="#7EAB55" fill-rule="evenodd"/><text fill="#FFFFFF" font-family="Times New Roman,Times New Roman_MSFontService,sans-serif" font-weight="400" font-size="17" transform="matrix(1 0 0 1.00019 170.96 104)">Key</text><path d="M266 88.1834C266 84.7769 268.761 82.0154 272.167 82.0154L326.833 82.0154C330.239 82.0154 333 84.7769 333 88.1834L333 112.855C333 116.261 330.239 119.022 326.833 119.022L272.167 119.022C268.761 119.022 266 116.261 266 112.855Z" fill="#F0C443" fill-rule="evenodd"/><text font-family="Times New Roman,Times New Roman_MSFontService,sans-serif" font-weight="400" font-size="17" transform="matrix(1 0 0 1.00019 279.87 107)">Value</text><path d="M0-0.999322 10.8812-0.999322 10.8812 0.0910668 9.8819-0.908255 13.1016-0.908255 13.1016 1.09039 8.88258 1.09039 8.88258 0 9.8819 0.999322 0 0.999322ZM11.7691-3.90622 19.7637 0.0910668 11.7691 4.08835Z" transform="matrix(1.83697e-16 1.00019 1 -1.83732e-16 185 62.0117)"/><path d="M255 43.0088 300.521 43.0088 300.521 75.5574 298.522 75.5574 298.522 44.0084 299.522 45.0079 255 45.0079ZM303.519 74.2247 299.522 82.2208 295.524 74.2247Z"/><path d="M0-0.999322 45.3387-0.999322 45.3387 31.8301 43.34 31.8301 43.34 0 44.3393 0.999322 0 0.999322ZM48.3366 30.4977 44.3393 38.4922 40.3421 30.4977Z" transform="matrix(-1 1.22488e-16 1.22465e-16 1.00019 115.339 44.0084)"/><path d="M25 139.193C25 135.787 27.761 133.025 31.1667 133.025L224.833 133.025C228.239 133.025 231 135.787 231 139.193L231 163.864C231 167.271 228.239 170.032 224.833 170.032L31.1667 170.032C27.761 170.032 25 167.271 25 163.864Z" fill="#6899D0" fill-rule="evenodd"/><text fill="#FFFFFF" font-family="Times New Roman,Times New Roman_MSFontService,sans-serif" font-weight="400" font-size="17" transform="matrix(1 0 0 1.00019 45.9452 158)">Apply_rotary_pos_emb</text><path d="M38 200.205C38 197.35 40.3133 195.037 43.1668 195.037L99.8332 195.037C102.687 195.037 105 197.35 105 200.205L105 220.875C105 223.729 102.687 226.043 99.8332 226.043L43.1668 226.043C40.3133 226.043 38 223.729 38 220.875Z" fill="#E27F43" fill-rule="evenodd"/><text fill="#FFFFFF" font-family="Times New Roman,Times New Roman_MSFontService,sans-serif" font-weight="400" font-size="17" transform="matrix(1 0 0 1.00019 49.5803 218)">Query</text><path d="M152 200.205C152 197.35 154.313 195.037 157.167 195.037L213.833 195.037C216.687 195.037 219 197.35 219 200.205L219 220.875C219 223.729 216.687 226.043 213.833 226.043L157.167 226.043C154.313 226.043 152 223.729 152 220.875Z" fill="#7EAB55" fill-rule="evenodd"/><text fill="#FFFFFF" font-family="Times New Roman,Times New Roman_MSFontService,sans-serif" font-weight="400" font-size="17" transform="matrix(1 0 0 1.00019 171.022 217)">Key</text><path d="M25 253.214C25 249.808 27.761 247.047 31.1667 247.047L224.833 247.047C228.239 247.047 231 249.808 231 253.214L231 277.886C231 281.292 228.239 284.054 224.833 284.054L31.1667 284.054C27.761 284.054 25 281.292 25 277.886Z" fill="#6899D0" fill-rule="evenodd"/><text fill="#FFFFFF" font-family="Times New Roman,Times New Roman_MSFontService,sans-serif" font-weight="400" font-size="17" transform="matrix(1 0 0 1.00019 91.2478 272)">Repeat_kv</text><path d="M38 314.226C38 311.372 40.3133 309.058 43.1668 309.058L99.8332 309.058C102.687 309.058 105 311.372 105 314.226L105 334.896C105 337.75 102.687 340.064 99.8332 340.064L43.1668 340.064C40.3133 340.064 38 337.75 38 334.896Z" fill="#E27F43" fill-rule="evenodd"/><text fill="#FFFFFF" font-family="Times New Roman,Times New Roman_MSFontService,sans-serif" font-weight="400" font-size="17" transform="matrix(1 0 0 1.00019 49.5182 332)">Query</text><path d="M152 314.226C152 311.372 154.313 309.058 157.167 309.058L213.833 309.058C216.687 309.058 219 311.372 219 314.226L219 334.896C219 337.75 216.687 340.064 213.833 340.064L157.167 340.064C154.313 340.064 152 337.75 152 334.896Z" fill="#7EAB55" fill-rule="evenodd"/><text fill="#FFFFFF" font-family="Times New Roman,Times New Roman_MSFontService,sans-serif" font-weight="400" font-size="17" transform="matrix(1 0 0 1.00019 170.96 331)">Key</text><path d="M71 410.077 81.9999 366.069 185 366.069 174 410.077Z" fill="#E27F43" fill-rule="evenodd"/><text fill="#FFFFFF" font-family="Times New Roman,Times New Roman_MSFontService,sans-serif" font-weight="400" font-size="17" transform="matrix(1 0 0 1.00019 95.4951 395)">Dot_Attn</text><path d="M58 435.249C58 431.842 60.761 429.081 64.1668 429.081L200.833 429.081C204.239 429.081 207 431.842 207 435.249L207 459.92C207 463.326 204.239 466.088 200.833 466.088L64.1668 466.088C60.761 466.088 58 463.326 58 459.92Z" fill="#6899D0" fill-rule="evenodd"/><text fill="#FFFFFF" font-family="Times New Roman,Times New Roman_MSFontService,sans-serif" font-weight="400" font-size="17" transform="matrix(1 0 0 1.00019 71.8927 454)">Attention_weight</text><path d="M333 31.1726C333 27.7662 335.761 25.0048 339.167 25.0048L462.833 25.0048C466.239 25.0048 469 27.7662 469 31.1726L469 55.8438C469 59.2503 466.239 62.0117 462.833 62.0117L339.167 62.0117C335.761 62.0117 333 59.2503 333 55.8438Z" fill="#6899D0" fill-rule="evenodd"/><text fill="#FFFFFF" font-family="Times New Roman,Times New Roman_MSFontService,sans-serif" font-weight="400" font-size="17" transform="matrix(1 0 0 1.00019 345.59 50)">Attention_mask</text><path d="M107.5 504.595C107.5 492.995 116.902 483.591 128.5 483.591 140.098 483.591 149.5 492.995 149.5 504.595 149.5 516.195 140.098 525.599 128.5 525.599 116.902 525.599 107.5 516.195 107.5 504.595Z" stroke="#172C51" stroke-width="1.33243" stroke-miterlimit="8" fill="#6C9AD3" fill-rule="evenodd"/><text fill="#FFFFFF" font-family="Calibri,Calibri_MSFontService,sans-serif" font-weight="400" font-size="21" transform="matrix(1 0 0 1.00019 123.06 511)">+</text><path d="M84 547.27C84 543.864 86.761 541.102 90.1668 541.102L165.833 541.102C169.239 541.102 172 543.864 172 547.27L172 571.941C172 575.348 169.239 578.109 165.833 578.109L90.1668 578.109C86.761 578.109 84 575.348 84 571.941Z" fill="#7E7C7B" fill-rule="evenodd"/><text fill="#FFFFFF" font-family="Times New Roman,Times New Roman_MSFontService,sans-serif" font-weight="400" font-size="17" transform="matrix(1 0 0 1.00019 98.8258 567)">Softmax</text><path d="M128.99 170.032 128.99 183.751 70.9999 183.751 71.9993 182.752 71.9993 188.808 70.0006 188.808 70.0006 181.752 127.99 181.752 126.991 182.752 126.991 170.032ZM74.9972 187.476 70.9999 195.472 67.0026 187.476Z"/><path d="M0-0.999322 13.5734-0.999322 13.5734 57.2061 12.574 56.2068 18.4859 56.2068 18.4859 58.2054 11.5747 58.2054 11.5747 0 12.574 0.999322 0 0.999322ZM17.1535 53.2088 25.148 57.2061 17.1535 61.2034Z" transform="matrix(1.83697e-16 1.00019 1 -1.83732e-16 128 170.032)"/><path d="M0-0.999322 10.9243-0.999322 10.9243 0.000104916 9.92502-0.999217 13.1879-0.999217 13.1879 0.999426 8.9257 0.999426 8.9257 0 9.92502 0.999322 0 0.999322ZM11.8555-3.99718 19.85 0.000104916 11.8555 3.99739Z" transform="matrix(1.83697e-16 1.00019 1 -1.83732e-16 71 113.021)"/><path d="M0-0.999322 11.1329-0.999322 11.1329 0.233857 10.1335-0.765465 13.6049-0.765465 13.6049 1.23318 9.13422 1.23318 9.13422 0 10.1335 0.999322 0 0.999322ZM12.2725-3.76343 20.2671 0.233857 12.2725 4.23114Z" transform="matrix(1.83697e-16 1.00019 1 -1.83732e-16 185 113.021)"/><path d="M71.9994 226.043 71.9994 237.043 71 237.043 71.9993 236.043 71.9993 239.381 70.0007 239.381 70.0007 235.044 71.0001 235.044 70.0008 236.043 70.0008 226.043ZM74.9973 238.048 71 246.044 67.0027 238.048Z"/><path d="M0-0.999322 11.3009-0.999322 11.3009 0.000104916 10.3016-0.999217 13.9409-0.999217 13.9409 0.999426 9.30224 0.999426 9.30224 0 10.3016 0.999322 0 0.999322ZM12.6084-3.99718 20.603 0.000104916 12.6084 3.99739Z" transform="matrix(1.83697e-16 1.00019 1 -1.83732e-16 185 226.043)"/><path d="M128.99 284.054 128.99 297.773 70.9999 297.773 71.9993 296.773 71.9993 302.83 70.0006 302.83 70.0006 295.774 127.99 295.774 126.991 296.773 126.991 284.054ZM74.9972 301.497 70.9999 309.493 67.0026 301.497Z"/><path d="M0-0.999322 13.5734-0.999322 13.5734 57.2061 12.574 56.2068 18.4859 56.2068 18.4859 58.2054 11.5747 58.2054 11.5747 0 12.574 0.999322 0 0.999322ZM17.1535 53.2088 25.148 57.2061 17.1535 61.2034Z" transform="matrix(1.83697e-16 1.00019 1 -1.83732e-16 128 284.054)"/><path d="M0-0.999322 13.927-0.999322 13.927 57.0526 12.9277 56.0533 19.1933 56.0533 19.1933 58.0519 11.9284 58.0519 11.9284 0 12.9277 0.999322 0 0.999322ZM17.8608 53.0553 25.8554 57.0526 17.8608 61.0499Z" transform="matrix(1.83697e-16 1.00019 1 -1.83732e-16 70.9999 340.064)"/><path d="M186.143 340.064 186.143 354.137 128 354.137 128.999 353.138 128.999 359.548 127.001 359.548 127.001 352.138 185.144 352.138 184.144 353.138 184.144 340.064ZM131.997 358.215 128 366.211 124.003 358.215Z"/><path d="M0-0.999322 10.1183-0.999322 10.1183 4.29535 9.11901 3.29603 11.5759 3.29603 11.5759 5.29467 8.11968 5.29467 8.11968 0 9.11901 0.999322 0 0.999322ZM10.2434 0.298065 18.238 4.29535 10.2434 8.29264Z" transform="matrix(1.83697e-16 1.00019 1 -1.83732e-16 128 410.077)"/><path d="M133.295 466.088 133.295 475.798 128 475.798 128.999 474.799 128.999 476.846 127.001 476.846 127.001 473.799 132.295 473.799 131.296 474.799 131.296 466.088ZM131.997 475.513 128 483.509 124.003 475.513Z"/><path d="M129 525.099 129 534.294 128 534.294 128.999 533.295 128.999 534.827 127.001 534.827 127.001 532.295 128 532.295 127.001 533.295 127.001 525.099ZM131.997 533.494 128 541.49 124.003 533.494Z"/><path d="M85 601.28C85 597.874 87.761 595.112 91.1669 595.112L166.833 595.112C170.239 595.112 173 597.874 173 601.28L173 625.951C173 629.358 170.239 632.119 166.833 632.119L91.1669 632.119C87.761 632.119 85 629.358 85 625.951Z" fill="#6B99D7" fill-rule="evenodd"/><text fill="#FFFFFF" font-family="Times New Roman,Times New Roman_MSFontService,sans-serif" font-weight="400" font-size="17" transform="matrix(1 0 0 1.00019 101.854 620)">Matmul</text><path d="M0-0.999322 9.47525-0.999322 9.47525 1.03006 8.47593 0.0307403 10.2897 0.0307403 10.2897 2.02938 7.4766 2.02938 7.4766 0 8.47593 0.999322 0 0.999322ZM8.95728-2.96722 16.9519 1.03006 8.95728 5.02735Z" transform="matrix(1.83697e-16 1.00019 1 -1.83732e-16 128 578.109)"/><path d="M401.676 62.0117 401.676 504.91 155.662 504.91 155.662 502.911 400.677 502.911 399.677 503.91 399.677 62.0117ZM156.995 507.908 149 503.91 156.995 499.912Z"/><path d="M300.418 119.022 300.418 614.935 179.662 614.935 179.662 612.936 299.419 612.936 298.42 613.935 298.42 119.022ZM180.995 617.933 173 613.935 180.995 609.937Z"/><path d="M198 636.12C198 632.806 200.686 630.119 204 630.119L285 630.119C288.314 630.119 291 632.806 291 636.12L291 660.124C291 663.439 288.314 666.126 285 666.126L204 666.126C200.686 666.126 198 663.439 198 660.124Z" fill="#6B99D7" fill-rule="evenodd"/><text fill="#FFFFFF" font-family="Times New Roman,Times New Roman_MSFontService,sans-serif" font-weight="400" font-size="17" transform="matrix(1 0 0 1.00019 211.268 655)">O_Linear</text><path d="M336 636.12C336 632.806 338.686 630.119 342 630.119L418 630.119C421.314 630.119 424 632.806 424 636.12L424 660.124C424 663.439 421.314 666.126 418 666.126L342 666.126C338.686 666.126 336 663.439 336 660.124Z" fill="#6B99D7" fill-rule="evenodd"/><text fill="#FFFFFF" font-family="Times New Roman,Times New Roman_MSFontService,sans-serif" font-weight="400" font-size="17" transform="matrix(1 0 0 1.00019 357.854 655)">output</text><path d="M0-0.999322 16.9559-0.999322 16.9559 62.0738 14.9573 62.0738 14.9573 0 15.9566 0.999322 0 0.999322ZM19.9539 60.7413 15.9566 68.7359 11.9593 60.7413Z" transform="matrix(1.83697e-16 1.00019 1 -1.83732e-16 129 632.119)"/><path d="M291 647.123 329.449 647.123 329.449 649.122 291 649.122ZM328.117 644.124 336.111 648.122 328.117 652.12Z"/><rect x="18.5" y="8.50155" width="460" height="664.125" stroke="#BDBEBC" stroke-width="2.99796" stroke-miterlimit="8" stroke-dasharray="11.9919 8.99389" fill="none"/><text font-family="Times New Roman,Times New Roman_MSFontService,sans-serif" font-weight="700" font-size="17" transform="matrix(1 0 0 1.00019 26.4117 33)">Attention</text></g></svg>