<svg width="1134" height="454" xmlns="http://www.w3.org/2000/svg" xmlns:xlink="http://www.w3.org/1999/xlink" overflow="hidden"><defs><clipPath id="clip0"><rect x="0" y="0" width="1134" height="454"/></clipPath></defs><g clip-path="url(#clip0)"><rect x="0" y="0" width="1134" height="454.434" fill="#FFFFFF"/><rect x="889.5" y="15.5148" width="226" height="425.406" stroke="#172C51" stroke-width="1.33353" stroke-miterlimit="8" fill="#F8ECF0"/><rect x="335.5" y="15.5148" width="545" height="424.405" stroke="#172C51" stroke-width="1.33353" stroke-miterlimit="8" fill="#F8ECF0"/><rect x="11.5" y="14.5138" width="316" height="424.405" stroke="#000000" stroke-width="1.33353" stroke-miterlimit="8" fill="#F8ECF0"/><rect x="255" y="109.104" width="54" height="208.199" fill="#C5E0B4" fill-opacity="0.85098"/><text font-family="Microsoft YaHei,Microsoft YaHei_MSFontService,sans-serif" font-weight="700" font-size="27" transform="matrix(1 -2.45398e-16 2.44696e-16 1.00096 268.688 191)">分</text><text font-family="Microsoft YaHei,Microsoft YaHei_MSFontService,sans-serif" font-weight="700" font-size="27" transform="matrix(1 -2.45398e-16 2.44696e-16 1.00096 268.688 223)">词</text><text font-family="Microsoft YaHei,Microsoft YaHei_MSFontService,sans-serif" font-weight="700" font-size="27" transform="matrix(1 -2.45398e-16 2.44696e-16 1.00096 268.688 255)">器</text><rect x="376" y="53.0507" width="488" height="301.288" stroke="#000000" stroke-width="2.00221" stroke-miterlimit="8" fill="#EBF0F9"/><rect x="507" y="68.065" width="60" height="239.228" fill="#A887E9" fill-opacity="0.560784"/><text font-family="Microsoft YaHei,Microsoft YaHei_MSFontService,sans-serif" font-weight="400" font-size="19" transform="matrix(6.12323e-17 1.00191 -0.999046 6.12908e-17 530.764 150)">层规范化</text><rect x="417" y="68.065" width="60" height="239.228" fill="#FF5500" fill-opacity="0.560784"/><text font-family="Microsoft YaHei,Microsoft YaHei_MSFontService,sans-serif" font-weight="400" font-size="19" transform="matrix(6.12323e-17 1.00191 -0.999046 6.12908e-17 440.608 121)">时间感知注意力</text><rect x="735" y="74.0706" width="60" height="239.228" fill="#A887E9" fill-opacity="0.560784"/><text font-family="Microsoft YaHei,Microsoft YaHei_MSFontService,sans-serif" font-weight="400" font-size="19" transform="matrix(6.12323e-17 1.00191 -0.999046 6.12908e-17 757.968 156)">层规范化</text><rect x="644" y="74.0706" width="60" height="239.228" fill="#C5E0B4" fill-opacity="0.85098"/><text font-family="Microsoft YaHei,Microsoft YaHei_MSFontService,sans-serif" font-weight="400" font-size="19" transform="matrix(6.12323e-17 1.00191 -0.999046 6.12908e-17 667.397 136)">前馈神经网络</text><path d="M1.00015-3.30727e-06 1.00023 25.086-1.00006 25.086-1.00015 3.30727e-06ZM4.00067 23.7525 0.000105002 31.7536-4.00051 23.7525Z" transform="matrix(6.12323e-17 1.00096 1 -6.12908e-17 477 189.181)"/><path d="M571 188.181 641.01 188.18 641.01 190.182 571 190.183ZM639.676 185.176 647.677 189.181 639.676 193.185Z"/><path d="M1.00015-3.30727e-06 1.00023 25.086-1.00006 25.086-1.00015 3.30727e-06ZM4.00067 23.7525 0.000105002 31.7536-4.00051 23.7525Z" transform="matrix(6.12323e-17 1.00096 1 -6.12908e-17 701 189.181)"/><path d="M392 188.179 393.825 188.179 393.825 327.532 392.825 326.531 594.243 326.531 593.243 327.532 593.243 220.256 595.243 220.256 595.243 328.533 391.825 328.533 391.825 189.181 392.825 190.182 392 190.182ZM590.243 221.591 594.243 213.582 598.244 221.591Z"/><text font-family="Cambria Math,Cambria Math_MSFontService,sans-serif" font-weight="400" font-size="32" transform="matrix(6.12323e-17 1.00191 -0.999046 6.12908e-17 583.819 173)">⊕</text><path d="M619 189.18 710.64 189.18 710.64 233.131 709.64 232.13 820.817 232.13 819.817 233.131 819.817 215.779 821.817 215.779 821.817 234.133 708.64 234.133 708.64 190.182 709.64 191.183 619 191.183ZM816.816 217.114 820.817 209.105 824.818 217.114Z"/><path d="M793 187.18 849.485 187.179 849.485 189.181 793 189.182ZM848.152 184.175 856.153 188.18 848.152 192.184Z"/><text font-family="Cambria Math,Cambria Math_MSFontService,sans-serif" font-weight="400" font-size="32" transform="matrix(6.12323e-17 1.00191 -0.999046 6.12908e-17 810.593 173)">⊕</text><rect x="361" y="64.0612" width="487" height="301.288" stroke="#000000" stroke-width="2.00221" stroke-miterlimit="8" fill="#EBF0F9"/><rect x="492" y="79.0754" width="60" height="239.228" fill="#A887E9" fill-opacity="0.560784"/><text font-family="Microsoft YaHei,Microsoft YaHei_MSFontService,sans-serif" font-weight="400" font-size="19" transform="matrix(6.12323e-17 1.00191 -0.999046 6.12908e-17 515.323 161)">层规范化</text><rect x="402" y="79.0754" width="60" height="239.228" fill="#FF5500" fill-opacity="0.560784"/><text font-family="Microsoft YaHei,Microsoft YaHei_MSFontService,sans-serif" font-weight="400" font-size="19" transform="matrix(6.12323e-17 1.00191 -0.999046 6.12908e-17 425.167 132)">时间感知注意力</text><rect x="719" y="85.0812" width="60" height="239.228" fill="#A887E9" fill-opacity="0.560784"/><text font-family="Microsoft YaHei,Microsoft YaHei_MSFontService,sans-serif" font-weight="400" font-size="19" transform="matrix(6.12323e-17 1.00191 -0.999046 6.12908e-17 742.527 167)">层规范化</text><rect x="629" y="85.0812" width="60" height="239.228" fill="#C5E0B4" fill-opacity="0.85098"/><text font-family="Microsoft YaHei,Microsoft YaHei_MSFontService,sans-serif" font-weight="400" font-size="19" transform="matrix(6.12323e-17 1.00191 -0.999046 6.12908e-17 651.956 147)">前馈神经网络</text><path d="M1.00015-3.30727e-06 1.00023 25.086-1.00006 25.086-1.00015 3.30727e-06ZM4.00067 23.7525 0.000105002 31.7536-4.00051 23.7525Z" transform="matrix(6.12323e-17 1.00096 1 -6.12908e-17 462 200.191)"/><path d="M555 199.191 625.01 199.19 625.01 201.192 555 201.194ZM623.676 196.187 631.677 200.191 623.676 204.196Z"/><path d="M1.00015-3.30727e-06 1.00023 25.086-1.00006 25.086-1.00015 3.30727e-06ZM4.00067 23.7525 0.000105002 31.7536-4.00051 23.7525Z" transform="matrix(6.12323e-17 1.00096 1 -6.12908e-17 686 200.191)"/><path d="M377 199.19 378.825 199.19 378.825 338.543 377.825 337.542 579.243 337.542 578.243 338.543 578.243 231.266 580.243 231.266 580.243 339.544 376.825 339.544 376.825 200.191 377.825 201.192 377 201.192ZM575.243 232.601 579.243 224.592 583.244 232.601Z"/><text font-family="Cambria Math,Cambria Math_MSFontService,sans-serif" font-weight="400" font-size="32" transform="matrix(6.12323e-17 1.00191 -0.999046 6.12908e-17 568.378 184)">⊕</text><path d="M604 200.191 695.64 200.191 695.64 244.142 694.64 243.141 805.817 243.141 804.817 244.142 804.817 226.79 806.817 226.79 806.817 245.143 693.64 245.143 693.64 201.192 694.64 202.193 604 202.193ZM801.816 228.124 805.817 220.116 809.818 228.124Z"/><path d="M777 198.19 833.485 198.189 833.485 200.191 777 200.193ZM832.152 195.186 840.153 199.19 832.152 203.195Z"/><text font-family="Cambria Math,Cambria Math_MSFontService,sans-serif" font-weight="400" font-size="32" transform="matrix(6.12323e-17 1.00191 -0.999046 6.12908e-17 795.152 184)">⊕</text><rect x="348" y="76.0727" width="488" height="302.289" stroke="#000000" stroke-width="2.00221" stroke-miterlimit="8" fill="#EBF0F9"/><rect x="479" y="92.0878" width="60" height="239.228" fill="#F6969A"/><text font-family="Microsoft YaHei,Microsoft YaHei_MSFontService,sans-serif" font-weight="700" font-size="27" transform="matrix(1 -2.45398e-16 2.44696e-16 1.00096 495.794 174)">注</text><text font-family="Microsoft YaHei,Microsoft YaHei_MSFontService,sans-serif" font-weight="700" font-size="27" transform="matrix(1 -2.45398e-16 2.44696e-16 1.00096 495.794 206)">意</text><text font-family="Microsoft YaHei,Microsoft YaHei_MSFontService,sans-serif" font-weight="700" font-size="27" transform="matrix(1 -2.45398e-16 2.44696e-16 1.00096 495.794 238)">力</text><text font-family="Microsoft YaHei,Microsoft YaHei_MSFontService,sans-serif" font-weight="700" font-size="27" transform="matrix(1 -2.45398e-16 2.44696e-16 1.00096 495.794 270)">层</text><rect x="389" y="92.0878" width="60" height="239.228" fill="#C5B5F0"/><text font-family="Microsoft YaHei,Microsoft YaHei_MSFontService,sans-serif" font-weight="700" font-size="27" transform="matrix(1 -2.45398e-16 2.44696e-16 1.00096 405.638 174)">规</text><text font-family="Microsoft YaHei,Microsoft YaHei_MSFontService,sans-serif" font-weight="700" font-size="27" transform="matrix(1 -2.45398e-16 2.44696e-16 1.00096 405.638 206)">范</text><text font-family="Microsoft YaHei,Microsoft YaHei_MSFontService,sans-serif" font-weight="700" font-size="27" transform="matrix(1 -2.45398e-16 2.44696e-16 1.00096 405.638 238)">化</text><text font-family="Microsoft YaHei,Microsoft YaHei_MSFontService,sans-serif" font-weight="700" font-size="27" transform="matrix(1 -2.45398e-16 2.44696e-16 1.00096 405.638 270)">层</text><rect x="706" y="98.0937" width="60" height="239.228" fill="#CBE3BE"/><text font-family="Microsoft YaHei,Microsoft YaHei_MSFontService,sans-serif" font-weight="700" font-size="27" transform="matrix(1 -2.45398e-16 2.44696e-16 1.00096 722.997 147)">前</text><text font-family="Microsoft YaHei,Microsoft YaHei_MSFontService,sans-serif" font-weight="700" font-size="27" transform="matrix(1 -2.45398e-16 2.44696e-16 1.00096 722.997 179)">馈</text><text font-family="Microsoft YaHei,Microsoft YaHei_MSFontService,sans-serif" font-weight="700" font-size="27" transform="matrix(1 -2.45398e-16 2.44696e-16 1.00096 722.997 212)">神</text><text font-family="Microsoft YaHei,Microsoft YaHei_MSFontService,sans-serif" font-weight="700" font-size="27" transform="matrix(1 -2.45398e-16 2.44696e-16 1.00096 722.997 244)">经</text><text font-family="Microsoft YaHei,Microsoft YaHei_MSFontService,sans-serif" font-weight="700" font-size="27" transform="matrix(1 -2.45398e-16 2.44696e-16 1.00096 722.997 276)">网</text><text font-family="Microsoft YaHei,Microsoft YaHei_MSFontService,sans-serif" font-weight="700" font-size="27" transform="matrix(1 -2.45398e-16 2.44696e-16 1.00096 722.997 308)">络</text><rect x="616" y="97.0926" width="60" height="239.228" fill="#C5B5F0"/><text font-family="Microsoft YaHei,Microsoft YaHei_MSFontService,sans-serif" font-weight="700" font-size="27" transform="matrix(1 -2.45398e-16 2.44696e-16 1.00096 632.426 179)">规</text><text font-family="Microsoft YaHei,Microsoft YaHei_MSFontService,sans-serif" font-weight="700" font-size="27" transform="matrix(1 -2.45398e-16 2.44696e-16 1.00096 632.426 211)">范</text><text font-family="Microsoft YaHei,Microsoft YaHei_MSFontService,sans-serif" font-weight="700" font-size="27" transform="matrix(1 -2.45398e-16 2.44696e-16 1.00096 632.426 243)">化</text><text font-family="Microsoft YaHei,Microsoft YaHei_MSFontService,sans-serif" font-weight="700" font-size="27" transform="matrix(1 -2.45398e-16 2.44696e-16 1.00096 632.426 275)">层</text><path d="M1.50022-4.9609e-06 1.5003 24.2525-1.50014 24.2525-1.50022 4.9609e-06ZM4.50074 22.7523 0.000105002 31.7536-4.50059 22.7523Z" transform="matrix(6.12323e-17 1.00096 1 -6.12908e-17 449.5 213.704)"/><path d="M542.5 212.204 611.676 212.202 611.676 215.206 542.5 215.207ZM610.176 209.199 619.177 213.704 610.176 218.209Z"/><path d="M1.50022-4.9609e-06 1.5003 24.2525-1.50014 24.2525-1.50022 4.9609e-06ZM4.50074 22.7523 0.000105002 31.7536-4.50059 22.7523Z" transform="matrix(6.12323e-17 1.00096 1 -6.12908e-17 673.5 213.704)"/><path d="M364.5 212.202 366.825 212.202 366.825 352.056 365.325 350.554 566.743 350.554 565.243 352.056 565.243 245.614 568.243 245.614 568.243 353.557 363.825 353.557 363.825 213.704 365.325 215.206 364.5 215.206ZM562.242 247.115 566.743 238.105 571.244 247.115Z"/><text font-family="Cambria Math,Cambria Math_MSFontService,sans-serif" font-weight="400" font-size="32" transform="matrix(6.12323e-17 1.00191 -0.999046 6.12908e-17 555.6 197)">⊕</text><path d="M581.5 212.202 593.625 212.202 593.625 352.744 592.125 351.242 793.323 351.242 791.823 352.744 791.823 240.853 794.823 240.853 794.823 354.245 590.625 354.245 590.625 213.704 592.125 215.206 581.5 215.206ZM788.823 242.355 793.323 233.345 797.824 242.355Z"/><path d="M765.5 211.203 821.152 211.202 821.152 214.205 765.5 214.206ZM819.652 208.198 828.653 212.703 819.652 217.208Z"/><text font-family="Cambria Math,Cambria Math_MSFontService,sans-serif" font-weight="400" font-size="32" transform="matrix(6.12323e-17 1.00191 -0.999046 6.12908e-17 782.373 196)">⊕</text><rect x="161" y="109.104" width="54" height="208.199" fill="#FFE699" fill-opacity="0.560784"/><text font-family="Microsoft YaHei,Microsoft YaHei_MSFontService,sans-serif" font-weight="700" font-size="27" transform="matrix(1 -2.45398e-16 2.44696e-16 1.00096 174.94 159)">数</text><text font-family="Microsoft YaHei,Microsoft YaHei_MSFontService,sans-serif" font-weight="700" font-size="27" transform="matrix(1 -2.45398e-16 2.44696e-16 1.00096 174.94 191)">据</text><text font-family="Microsoft YaHei,Microsoft YaHei_MSFontService,sans-serif" font-weight="700" font-size="27" transform="matrix(1 -2.45398e-16 2.44696e-16 1.00096 174.94 223)">预</text><text font-family="Microsoft YaHei,Microsoft YaHei_MSFontService,sans-serif" font-weight="700" font-size="27" transform="matrix(1 -2.45398e-16 2.44696e-16 1.00096 174.94 255)">处</text><text font-family="Microsoft YaHei,Microsoft YaHei_MSFontService,sans-serif" font-weight="700" font-size="27" transform="matrix(1 -2.45398e-16 2.44696e-16 1.00096 174.94 287)">理</text><path d="M32.5 190.182C32.5 183.824 37.6488 178.671 44.0002 178.671L107 178.671C113.351 178.671 118.5 183.824 118.5 190.182L118.5 236.225C118.5 242.583 113.351 247.736 107 247.736L44.0002 247.736C37.6488 247.736 32.5 242.583 32.5 236.225Z" stroke="#172C51" stroke-width="1.33353" stroke-miterlimit="8" fill="#BDD7EE" fill-rule="evenodd"/><text font-family="Times New Roman,Times New Roman_MSFontService,sans-serif" font-weight="700" font-size="27" transform="matrix(1 0 0 1.00096 45.0013 223)">Text</text><path d="M118.504 212.202 154.314 212.297 154.306 215.301 118.496 215.206ZM152.821 209.29 161.811 213.819 152.797 218.3Z"/><path d="M0.00436767-1.50021 32.0321-1.40697 32.0233 1.59346-0.00436767 1.50021ZM30.5406-4.41177 39.5287 0.115083 30.5144 4.58952Z" transform="matrix(1 0 0 -1.00096 215.5 213.819)"/><path d="M0.0249869-1.50001 72.3901-0.294567 72.3401 2.70546-0.0249869 1.50001ZM70.9401-3.31958 79.8652 1.33038 70.7901 5.68049Z" transform="matrix(1 0 0 -1.00096 309.5 213.034)"/><path d="M864.5 216.206 903.223 216.206 903.223 219.21 864.5 219.209ZM901.722 213.203 910.724 217.708 901.722 222.213Z"/><text font-family="Microsoft YaHei,Microsoft YaHei_MSFontService,sans-serif" font-weight="700" font-size="19" transform="matrix(1 0 0 1.00096 36.9485 270)">患者信息</text><text font-family="Times New Roman,Times New Roman_MSFontService,sans-serif" font-weight="700" font-size="19" transform="matrix(1 0 0 1.00096 553.982 40)">Decoder</text><text font-family="Microsoft YaHei,Microsoft YaHei_MSFontService,sans-serif" font-weight="700" font-size="19" transform="matrix(1 0 0 1.00096 621.659 40)">堆叠</text><rect x="910" y="109.104" width="53.9999" height="209.2" fill="#F8CBAD" fill-opacity="0.85098"/><text font-family="Microsoft YaHei,Microsoft YaHei_MSFontService,sans-serif" font-weight="700" font-size="27" transform="matrix(1 -2.45398e-16 2.44696e-16 1.00096 923.346 160)">线</text><text font-family="Microsoft YaHei,Microsoft YaHei_MSFontService,sans-serif" font-weight="700" font-size="27" transform="matrix(1 -2.45398e-16 2.44696e-16 1.00096 923.346 192)">性</text><text font-family="Microsoft YaHei,Microsoft YaHei_MSFontService,sans-serif" font-weight="700" font-size="27" transform="matrix(1 -2.45398e-16 2.44696e-16 1.00096 923.346 224)">分</text><text font-family="Microsoft YaHei,Microsoft YaHei_MSFontService,sans-serif" font-weight="700" font-size="27" transform="matrix(1 -2.45398e-16 2.44696e-16 1.00096 923.346 256)">类</text><text font-family="Microsoft YaHei,Microsoft YaHei_MSFontService,sans-serif" font-weight="700" font-size="27" transform="matrix(1 -2.45398e-16 2.44696e-16 1.00096 923.346 288)">层</text><path d="M993.5 192.017C993.5 185.752 998.574 180.672 1004.83 180.672L1092.17 180.672C1098.43 180.672 1103.5 185.752 1103.5 192.017L1103.5 237.393C1103.5 243.658 1098.43 248.737 1092.17 248.737L1004.83 248.737C998.574 248.737 993.5 243.658 993.5 237.393Z" stroke="#172C51" stroke-width="1.33353" stroke-miterlimit="8" fill="#BDD7EE" fill-rule="evenodd"/><text font-family="Times New Roman,Times New Roman_MSFontService,sans-serif" font-weight="700" font-size="27" transform="matrix(1 0 0 1.00096 1006.14 224)">Output</text><text font-family="Microsoft YaHei,Microsoft YaHei_MSFontService,sans-serif" font-weight="700" font-size="19" transform="matrix(1 0 0 1.00096 1008.35 271)">判断结果</text><path d="M964.518 212.202 986.414 212.458 986.379 215.462 964.482 215.206ZM984.949 209.438 993.897 214.048 984.844 218.447Z"/><text font-family="Microsoft YaHei,Microsoft YaHei_MSFontService,sans-serif" font-weight="700" font-size="19" transform="matrix(1 0 0 1.00096 130.716 416)">输入模块</text><text font-family="Microsoft YaHei,Microsoft YaHei_MSFontService,sans-serif" font-weight="700" font-size="19" transform="matrix(1 0 0 1.00096 569.143 415)">主干模块</text><text font-family="Microsoft YaHei,Microsoft YaHei_MSFontService,sans-serif" font-weight="700" font-size="19" transform="matrix(1 0 0 1.00096 977.163 414)">输出模块</text></g></svg>