<svg width="1280" height="720" xmlns="http://www.w3.org/2000/svg" xmlns:xlink="http://www.w3.org/1999/xlink" overflow="hidden"><g><rect x="0" y="0" width="1280" height="720" fill="#FFFFFF"/><path d="M48 73.0002C48 69.1341 51.1341 66 55.0001 66L112 66C115.866 66 119 69.1341 119 73.0002L119 101C119 104.866 115.866 108 112 108L55.0001 108C51.1341 108 48 104.866 48 101Z" fill="#6899D0" fill-rule="evenodd"/><text fill="#FFFFFF" font-family="Times New Roman,Times New Roman_MSFontService,sans-serif" font-weight="400" font-size="16" transform="translate(69.4256 92)">Text</text><path d="M151 73.0002C151 69.1341 154.134 66 158 66L251 66C254.866 66 258 69.1341 258 73.0002L258 101C258 104.866 254.866 108 251 108L158 108C154.134 108 151 104.866 151 101Z" fill="#7EA956" fill-rule="evenodd"/><text fill="#FFFFFF" font-family="Times New Roman,Times New Roman_MSFontService,sans-serif" font-weight="400" font-size="16" transform="translate(172.835 92)">Tokenizer</text><path d="M290 73.0001C290 69.134 293.134 66 297 66L384 66C387.866 66 391 69.134 391 73.0001L391 101C391 104.866 387.866 108 384 108L297 108C293.134 108 290 104.866 290 101Z" fill="#6899D0" fill-rule="evenodd"/><text fill="#FFFFFF" font-family="Times New Roman,Times New Roman_MSFontService,sans-serif" font-weight="400" font-size="16" transform="translate(310.065 92)">Input_ids</text><path d="M135 162C135 158.134 138.134 155 142 155L264 155C267.866 155 271 158.134 271 162L271 190C271 193.866 267.866 197 264 197L142 197C138.134 197 135 193.866 135 190Z" fill="#7EA956" fill-rule="evenodd"/><text fill="#FFFFFF" font-family="Times New Roman,Times New Roman_MSFontService,sans-serif" font-weight="400" font-size="16" transform="translate(165.994 182)">Embedding</text><path d="M135 231C135 227.134 138.134 224 142 224L264 224C267.866 224 271 227.134 271 231L271 259C271 262.866 267.866 266 264 266L142 266C138.134 266 135 262.866 135 259Z" fill="#6899D0" fill-rule="evenodd"/><text fill="#FFFFFF" font-family="Times New Roman,Times New Roman_MSFontService,sans-serif" font-weight="400" font-size="16" transform="translate(157.577 250)">Hidden_states</text><path d="M135 300C135 296.134 138.134 293 142 293L264 293C267.866 293 271 296.134 271 300L271 328C271 331.866 267.866 335 264 335L142 335C138.134 335 135 331.866 135 328Z" fill="#B86129" fill-rule="evenodd"/><text fill="#FFFFFF" font-family="Times New Roman,Times New Roman_MSFontService,sans-serif" font-weight="400" font-size="16" transform="translate(181.161 319)">Layers</text><path d="M135 368C135 364.134 138.134 361 142 361L264 361C267.866 361 271 364.134 271 368L271 396C271 399.866 267.866 403 264 403L142 403C138.134 403 135 399.866 135 396Z" fill="#7D7D7D" fill-rule="evenodd"/><text fill="#FFFFFF" font-family="Times New Roman,Times New Roman_MSFontService,sans-serif" font-weight="400" font-size="16" transform="translate(167.727 388)">RMSNorm</text><path d="M205 197.5 205 216.718 202 216.718 202 197.5ZM208 215.218 203.5 224.218 199 215.218Z"/><path d="M205 266.5 205 285.718 202 285.719 202 266.5ZM208 284.218 203.5 293.218 199 284.219Z"/><path d="M205 335.487 205.168 354.706 202.168 354.732 202 335.513ZM208.154 353.18 203.733 362.218 199.155 353.258Z"/><rect x="118.5" y="143.5" width="172" height="273" stroke="#BDBEBC" stroke-width="3" stroke-miterlimit="8" stroke-dasharray="12 9" fill="none"/><path d="M19 466C19 462.134 22.1341 459 26.0001 459L96.9999 459C100.866 459 104 462.134 104 466L104 494C104 497.866 100.866 501 96.9999 501L26.0001 501C22.1341 501 19 497.866 19 494Z" fill="#6899D0" fill-rule="evenodd"/><text fill="#FFFFFF" font-family="Times New Roman,Times New Roman_MSFontService,sans-serif" font-weight="400" font-size="16" transform="translate(40.2466 486)">Linear</text><path d="M19 533C19 529.134 22.1341 526 26.0001 526L96.9999 526C100.866 526 104 529.134 104 533L104 561C104 564.866 100.866 568 96.9999 568L26.0001 568C22.1341 568 19 564.866 19 561Z" fill="#6899D0" fill-rule="evenodd"/><text fill="#FFFFFF" font-family="Times New Roman,Times New Roman_MSFontService,sans-serif" font-weight="400" font-size="16" transform="translate(46.1633 552)">Loss</text><path d="M19 599C19 595.134 22.1341 592 26.0001 592L96.9999 592C100.866 592 104 595.134 104 599L104 627C104 630.866 100.866 634 96.9999 634L26.0001 634C22.1341 634 19 630.866 19 627Z" fill="#6899D0" fill-rule="evenodd"/><text fill="#FFFFFF" font-family="Times New Roman,Times New Roman_MSFontService,sans-serif" font-weight="400" font-size="16" transform="translate(40.7466 618)">output</text><path d="M204.981 403.5 204.981 433.027 61.5001 433.027 63.0001 431.527 63.0001 452.055 60.0001 452.055 60.0001 430.027 203.481 430.027 201.981 431.527 201.981 403.5ZM66.0001 450.555 61.5001 459.555 57.0001 450.555Z"/><path d="M63.0001 501.5 63.0001 518.388 60.0001 518.389 60.0001 501.5ZM66.0001 516.888 61.5002 525.888 57.0001 516.889Z"/><path d="M63.0001 568.5 63.0001 585.388 60.0001 585.389 60.0001 568.5ZM66.0001 583.888 61.5002 592.888 57.0001 583.889Z"/><path d="M0 1.5-24.0001 1.5-22.5001 0-22.5001 89.6311-24.0001 88.1311 112.345 88.1311 112.345 91.1311-25.5001 91.1311-25.5001-1.5 0-1.5ZM110.845 85.1311 119.845 89.6311 110.845 94.1311Z" transform="matrix(-1 0 0 1 391.345 87.5001)"/><text font-family="Microsoft YaHei,Microsoft YaHei_MSFontService,sans-serif" font-weight="700" font-size="16" transform="translate(41.5135 190)">主干部分</text><path d="M119.5 86.0001 143.845 86.0001 143.845 89.0001 119.5 89.0001ZM142.345 83.0001 151.345 87.5002 142.345 92.0001Z"/><path d="M258.5 86.0001 282.689 86.0001 282.689 89.0001 258.5 89.0001ZM281.189 83.0001 290.189 87.5002 281.189 92.0001Z"/><path d="M349 284.167C349 280.761 351.761 278 355.167 278L432.833 278C436.239 278 439 280.761 439 284.167L439 308.833C439 312.239 436.239 315 432.833 315L355.167 315C351.761 315 349 312.239 349 308.833Z" fill="#B86129" fill-rule="evenodd"/><text fill="#FFFFFF" font-family="Times New Roman,Times New Roman_MSFontService,sans-serif" font-weight="400" font-size="16" transform="translate(368.056 302)">Layers2</text><rect x="334.5" y="215.5" width="118" height="179" stroke="#BDBEBC" stroke-width="3" stroke-miterlimit="8" stroke-dasharray="12 9" fill="none"/><path d="M349 232.167C349 228.761 351.761 226 355.167 226L432.833 226C436.239 226 439 228.761 439 232.167L439 256.833C439 260.239 436.239 263 432.833 263L355.167 263C351.761 263 349 260.239 349 256.833Z" fill="#B86129" fill-rule="evenodd"/><text fill="#FFFFFF" font-family="Times New Roman,Times New Roman_MSFontService,sans-serif" font-weight="400" font-size="16" transform="translate(368.029 250)">Layers1</text><path d="M349 356.167C349 352.761 351.761 350 355.167 350L432.833 350C436.239 350 439 352.761 439 356.167L439 380.833C439 384.239 436.239 387 432.833 387L355.167 387C351.761 387 349 384.239 349 380.833Z" fill="#B86129" fill-rule="evenodd"/><text fill="#FFFFFF" font-family="Times New Roman,Times New Roman_MSFontService,sans-serif" font-weight="400" font-size="16" transform="translate(368.029 374)">Layersn</text><text font-family="Microsoft YaHei,Microsoft YaHei_MSFontService,sans-serif" font-weight="700" font-size="15" transform="translate(386.027 334)">…</text><path d="M515 94.0002C515 90.1341 518.134 87 522 87L644 87C647.866 87 651 90.1341 651 94.0002L651 122C651 125.866 647.866 129 644 129L522 129C518.134 129 515 125.866 515 122Z" fill="#6899D0" fill-rule="evenodd"/><text fill="#FFFFFF" font-family="Times New Roman,Times New Roman_MSFontService,sans-serif" font-weight="400" font-size="16" transform="translate(537.489 113)">Hidden_states</text><path d="M700 94.0001C700 90.1341 703.134 87 707 87L778 87C781.866 87 785 90.1341 785 94.0001L785 122C785 125.866 781.866 129 778 129L707 129C703.134 129 700 125.866 700 122Z" fill="#6899D0" fill-rule="evenodd"/><text fill="#FFFFFF" font-family="Times New Roman,Times New Roman_MSFontService,sans-serif" font-weight="400" font-size="16" transform="translate(716.777 113)">residual</text><path d="M651 107 693.485 107 693.485 109 651 109ZM692.152 104 700.152 108 692.152 112Z"/><text font-family="Microsoft YaHei,Microsoft YaHei_MSFontService,sans-serif" font-weight="700" font-size="13" transform="translate(658.002 101)">复制</text><path d="M515 167C515 163.134 518.134 160 522 160L644 160C647.866 160 651 163.134 651 167L651 195C651 198.866 647.866 202 644 202L522 202C518.134 202 515 198.866 515 195Z" fill="#7D7D7D" fill-rule="evenodd"/><text fill="#FFFFFF" font-family="Times New Roman,Times New Roman_MSFontService,sans-serif" font-weight="400" font-size="16" transform="translate(547.406 187)">RMSNorm</text><path d="M515 241C515 237.134 518.134 234 522 234L644 234C647.866 234 651 237.134 651 241L651 269C651 272.866 647.866 276 644 276L522 276C518.134 276 515 272.866 515 269Z" fill="#FBE8A3" fill-rule="evenodd"/><text font-family="Times New Roman,Times New Roman_MSFontService,sans-serif" font-weight="400" font-size="16" transform="translate(552.782 261)">Attention</text><path d="M515 315C515 311.134 518.134 308 522 308L644 308C647.866 308 651 311.134 651 315L651 343C651 346.866 647.866 350 644 350L522 350C518.134 350 515 346.866 515 343Z" fill="#6899D0" fill-rule="evenodd"/><text fill="#FFFFFF" font-family="Times New Roman,Times New Roman_MSFontService,sans-serif" font-weight="400" font-size="16" transform="translate(537.489 335)">Hidden_states</text><path d="M559.5 407C559.5 394.021 570.245 383.5 583.5 383.5 596.755 383.5 607.5 394.021 607.5 407 607.5 419.979 596.755 430.5 583.5 430.5 570.245 430.5 559.5 419.979 559.5 407Z" stroke="#172C51" stroke-width="1.33333" stroke-miterlimit="8" fill="#6C9AD3" fill-rule="evenodd"/><text fill="#FFFFFF" font-family="DengXian,DengXian_MSFontService,sans-serif" font-weight="400" font-size="24" transform="translate(574.906 414)">+</text><path d="M0-1 16.7512-1 16.7512 0.000419947 15.7512-0.99958 24.8356-0.99958 24.8356 1.00042 14.7512 1.00042 14.7512 0 15.7512 1 0 1ZM23.5023-3.99958 31.5023 0.000419947 23.5023 4.00042Z" transform="matrix(1.83697e-16 1 1 -1.83697e-16 583 129)"/><path d="M0-1 17.0302-1 17.0302 0.208609 16.0302-0.791391 25.3938-0.791391 25.3938 1.20861 15.0302 1.20861 15.0302 0 16.0302 1 0 1ZM24.0605-3.79139 32.0605 0.208609 24.0605 4.20861Z" transform="matrix(1.83697e-16 1 1 -1.83697e-16 583 202)"/><path d="M584.209 276 584.209 293.137 583 293.137 584 292.137 584 301.607 582 301.607 582 291.137 583.209 291.137 582.209 292.137 582.209 276ZM587 300.273 583 308.273 579 300.273Z"/><path d="M0-1 17.2933-1 17.2933 0.000104987 16.2933-0.999895 25.9199-0.999895 25.9199 1.0001 15.2933 1.0001 15.2933 0 16.2933 1 0 1ZM24.5866-3.99989 32.5866 0.000104987 24.5866 4.0001Z" transform="matrix(1.83697e-16 1 1 -1.83697e-16 583 350)"/><path d="M743.546 129 743.546 407.99 613.667 407.99 613.667 405.99 742.546 405.99 741.546 406.99 741.546 129ZM615 410.99 607 406.99 615 402.99Z"/><path d="M515 470C515 466.134 518.134 463 522 463L644 463C647.866 463 651 466.134 651 470L651 498C651 501.866 647.866 505 644 505L522 505C518.134 505 515 501.866 515 498Z" fill="#6899D0" fill-rule="evenodd"/><text fill="#FFFFFF" font-family="Times New Roman,Times New Roman_MSFontService,sans-serif" font-weight="400" font-size="16" transform="translate(537.489 489)">Hidden_states</text><path d="M516 545C516 541.134 519.134 538 523 538L644 538C647.866 538 651 541.134 651 545L651 573C651 576.866 647.866 580 644 580L523 580C519.134 580 516 576.866 516 573Z" fill="#7D7D7D" fill-rule="evenodd"/><text fill="#FFFFFF" font-family="Times New Roman,Times New Roman_MSFontService,sans-serif" font-weight="400" font-size="16" transform="translate(547.783 564)">RMSNorm</text><path d="M700 470C700 466.134 703.134 463 707 463L778 463C781.866 463 785 466.134 785 470L785 498C785 501.866 781.866 505 778 505L707 505C703.134 505 700 501.866 700 498Z" fill="#6899D0" fill-rule="evenodd"/><text fill="#FFFFFF" font-family="Times New Roman,Times New Roman_MSFontService,sans-serif" font-weight="400" font-size="16" transform="translate(716.777 489)">residual</text><path d="M651 483 693.486 483 693.486 485 651 485ZM692.152 480 700.152 484 692.152 488Z"/><text font-family="Microsoft YaHei,Microsoft YaHei_MSFontService,sans-serif" font-weight="700" font-size="13" transform="translate(658.002 477)">复制</text><path d="M718.5 559.5C718.5 546.245 729.245 535.5 742.5 535.5 755.755 535.5 766.5 546.245 766.5 559.5 766.5 572.755 755.755 583.5 742.5 583.5 729.245 583.5 718.5 572.755 718.5 559.5Z" stroke="#172C51" stroke-width="1.33333" stroke-miterlimit="8" fill="#6C9AD3" fill-rule="evenodd"/><text fill="#FFFFFF" font-family="DengXian,DengXian_MSFontService,sans-serif" font-weight="400" font-size="24" transform="translate(733.952 566)">+</text><path d="M584 430 584 447.293 583 447.293 584 446.293 584 455.92 582 455.92 582 445.293 583 445.293 582 446.293 582 430ZM587 454.586 583 462.586 579 454.586Z"/><path d="M0-1 17.4801-1 17.4801 0.377638 16.4801-0.622362 26.2934-0.622362 26.2934 1.37764 15.4801 1.37764 15.4801 0 16.4801 1 0 1ZM24.9601-3.62236 32.9601 0.377638 24.9601 4.37764Z" transform="matrix(1.83697e-16 1 1 -1.83697e-16 583 505)"/><path d="M515 620C515 616.134 518.134 613 522 613L644 613C647.866 613 651 616.134 651 620L651 648C651 651.866 647.866 655 644 655L522 655C518.134 655 515 651.866 515 648Z" fill="#F1CDB3" fill-rule="evenodd"/><text font-family="Times New Roman,Times New Roman_MSFontService,sans-serif" font-weight="400" font-size="16" transform="translate(566.489 639)">MLP</text><path d="M584.378 580 584.378 597.48 583 597.48 584 596.48 584 606.293 582 606.293 582 595.48 583.378 595.48 582.378 596.48 582.378 580ZM587 604.96 583 612.96 579 604.96Z"/><path d="M0-1 34.7883-1 34.7883 74.9019 33.7883 73.9019 60.9098 73.9019 60.9098 75.9019 32.7883 75.9019 32.7883 0 33.7883 1 0 1ZM59.5765 70.9019 67.5765 74.9019 59.5765 78.9019Z" transform="matrix(1 0 0 -1 651 633.902)"/><path d="M743.242 505 743.242 521.095 742 521.095 743 520.095 743 528.522 741 528.522 741 519.095 742.242 519.095 741.242 520.095 741.242 505ZM746 527.189 742 535.189 738 527.189Z"/><path d="M699 618C699 614.134 702.134 611 706 611L777 611C780.866 611 784 614.134 784 618L784 646C784 649.866 780.866 653 777 653L706 653C702.134 653 699 649.866 699 646Z" fill="#6899D0" fill-rule="evenodd"/><text fill="#FFFFFF" font-family="Times New Roman,Times New Roman_MSFontService,sans-serif" font-weight="400" font-size="16" transform="translate(714.284 628)">Hidden_</text><text fill="#FFFFFF" font-family="Times New Roman,Times New Roman_MSFontService,sans-serif" font-weight="400" font-size="16" transform="translate(724.031 648)">states</text><path d="M743.085 583 743.085 598.232 742 598.232 743 597.232 743 604.798 741 604.798 741 596.232 742.085 596.232 741.085 597.232 741.085 583ZM746 603.464 742 611.464 738 603.464Z"/><rect x="497.5" y="56.5001" width="296" height="609" stroke="#BDBEBC" stroke-width="3" stroke-miterlimit="8" stroke-dasharray="12 9" fill="none"/><text font-family="Microsoft YaHei,Microsoft YaHei_MSFontService,sans-serif" font-weight="700" font-size="16" transform="translate(507.097 75)">Decoder Layer</text><path d="M917 63.0001C917 59.6863 919.686 57 923 57L1047 57C1050.31 57 1053 59.6863 1053 63.0001L1053 86.9999C1053 90.3137 1050.31 93 1047 93L923 93C919.686 93 917 90.3137 917 86.9999Z" fill="#6899D0" fill-rule="evenodd"/><text fill="#FFFFFF" font-family="Times New Roman,Times New Roman_MSFontService,sans-serif" font-weight="400" font-size="16" transform="translate(939.39 81)">Hidden_states</text><path d="M842 117.167C842 114.313 844.313 112 847.167 112L901.833 112C904.687 112 907 114.313 907 117.167L907 137.833C907 140.687 904.687 143 901.833 143L847.167 143C844.313 143 842 140.687 842 137.833Z" fill="#E27F43" fill-rule="evenodd"/><text fill="#FFFFFF" font-family="Times New Roman,Times New Roman_MSFontService,sans-serif" font-weight="400" font-size="16" transform="translate(854.035 133)">Query</text><path d="M952 117C952 114.239 954.239 112 957 112L1012 112C1014.76 112 1017 114.239 1017 117L1017 137C1017 139.761 1014.76 142 1012 142L957 142C954.239 142 952 139.761 952 137Z" fill="#7EAB55" fill-rule="evenodd"/><text fill="#FFFFFF" font-family="Times New Roman,Times New Roman_MSFontService,sans-serif" font-weight="400" font-size="16" transform="translate(971.562 133)">Key</text><path d="M1063 118C1063 114.686 1065.69 112 1069 112L1122 112C1125.31 112 1128 114.686 1128 118L1128 142C1128 145.314 1125.31 148 1122 148L1069 148C1065.69 148 1063 145.314 1063 142Z" fill="#F0C443" fill-rule="evenodd"/><text font-family="Times New Roman,Times New Roman_MSFontService,sans-serif" font-weight="400" font-size="16" transform="translate(1077.48 136)">Value</text><path d="M0-1 10.5933-1 10.5933 0.0883989 9.59328-0.911601 12.5198-0.911601 12.5198 1.0884 8.59328 1.0884 8.59328 0 9.59328 1 0 1ZM11.1865-3.9116 19.1865 0.0883989 11.1865 4.0884Z" transform="matrix(1.83697e-16 1 1 -1.83697e-16 985 92.9999)"/><path d="M1053 74 1097.22 74 1097.22 105.423 1095.22 105.423 1095.22 75 1096.22 76 1053 76ZM1100.22 104.089 1096.22 112.089 1092.22 104.089Z"/><path d="M0-1 44.0442-1 44.0442 30.7012 42.0442 30.7012 42.0442 0 43.0442 1 0 1ZM47.0442 29.3679 43.0442 37.3679 39.0442 29.3679Z" transform="matrix(-1 1.22465e-16 1.22465e-16 1 917.044 75)"/><path d="M829 168C829 164.686 831.686 162 835 162L1023 162C1026.31 162 1029 164.686 1029 168L1029 192C1029 195.314 1026.31 198 1023 198L835 198C831.686 198 829 195.314 829 192Z" fill="#6899D0" fill-rule="evenodd"/><text fill="#FFFFFF" font-family="Times New Roman,Times New Roman_MSFontService,sans-serif" font-weight="400" font-size="16" transform="translate(853.337 185)">Apply_rotary_pos_emb</text><path d="M842 227C842 224.239 844.239 222 847 222L902 222C904.761 222 907 224.239 907 227L907 247C907 249.761 904.761 252 902 252L847 252C844.239 252 842 249.761 842 247Z" fill="#E27F43" fill-rule="evenodd"/><text fill="#FFFFFF" font-family="Times New Roman,Times New Roman_MSFontService,sans-serif" font-weight="400" font-size="16" transform="translate(854.095 243)">Query</text><path d="M952 227C952 224.239 954.239 222 957 222L1012 222C1014.76 222 1017 224.239 1017 227L1017 247C1017 249.761 1014.76 252 1012 252L957 252C954.239 252 952 249.761 952 247Z" fill="#7EAB55" fill-rule="evenodd"/><text fill="#FFFFFF" font-family="Times New Roman,Times New Roman_MSFontService,sans-serif" font-weight="400" font-size="16" transform="translate(971.622 242)">Key</text><path d="M829 278C829 274.686 831.686 272 835 272L1023 272C1026.31 272 1029 274.686 1029 278L1029 302C1029 305.314 1026.31 308 1023 308L835 308C831.686 308 829 305.314 829 302Z" fill="#6899D0" fill-rule="evenodd"/><text fill="#FFFFFF" font-family="Times New Roman,Times New Roman_MSFontService,sans-serif" font-weight="400" font-size="16" transform="translate(853.337 295)">Apply_rotary_pos_emb</text><path d="M842 338C842 335.239 844.239 333 847 333L902 333C904.761 333 907 335.239 907 338L907 358C907 360.761 904.761 363 902 363L847 363C844.239 363 842 360.761 842 358Z" fill="#E27F43" fill-rule="evenodd"/><text fill="#FFFFFF" font-family="Times New Roman,Times New Roman_MSFontService,sans-serif" font-weight="400" font-size="16" transform="translate(854.035 353)">Query</text><path d="M952 338C952 335.239 954.239 333 957 333L1012 333C1014.76 333 1017 335.239 1017 338L1017 358C1017 360.761 1014.76 363 1012 363L957 363C954.239 363 952 360.761 952 358Z" fill="#7EAB55" fill-rule="evenodd"/><text fill="#FFFFFF" font-family="Times New Roman,Times New Roman_MSFontService,sans-serif" font-weight="400" font-size="16" transform="translate(971.562 353)">Key</text><path d="M874 431 884.75 388 985 388 974.25 431Z" fill="#E27F43" fill-rule="evenodd"/><text fill="#FFFFFF" font-family="Times New Roman,Times New Roman_MSFontService,sans-serif" font-weight="400" font-size="16" transform="translate(899.171 415)">Dot_Attn</text><path d="M862 455C862 451.686 864.686 449 868 449L991 449C994.314 449 997 451.686 997 455L997 479C997 482.314 994.314 485 991 485L868 485C864.686 485 862 482.314 862 479Z" fill="#6899D0" fill-rule="evenodd"/><text fill="#FFFFFF" font-family="Times New Roman,Times New Roman_MSFontService,sans-serif" font-weight="400" font-size="16" transform="translate(873.254 472)">Attention_weight</text><path d="M1131 63.0001C1131 59.6863 1133.69 57 1137 57L1254 57C1257.31 57 1260 59.6863 1260 63.0001L1260 86.9999C1260 90.3137 1257.31 93 1254 93L1137 93C1133.69 93 1131 90.3137 1131 86.9999Z" fill="#6899D0" fill-rule="evenodd"/><text fill="#FFFFFF" font-family="Times New Roman,Times New Roman_MSFontService,sans-serif" font-weight="400" font-size="16" transform="translate(1144.21 81)">Attention_mask</text><path d="M909.5 522.5C909.5 511.454 918.678 502.5 930 502.5 941.322 502.5 950.5 511.454 950.5 522.5 950.5 533.546 941.322 542.5 930 542.5 918.678 542.5 909.5 533.546 909.5 522.5Z" stroke="#172C51" stroke-width="1.33333" stroke-miterlimit="8" fill="#6C9AD3" fill-rule="evenodd"/><text fill="#FFFFFF" font-family="DengXian,DengXian_MSFontService,sans-serif" font-weight="400" font-size="24" transform="translate(921.421 530)">+</text><path d="M887 564C887 560.686 889.686 558 893 558L966 558C969.314 558 972 560.686 972 564L972 588C972 591.314 969.314 594 966 594L893 594C889.686 594 887 591.314 887 588Z" fill="#7E7C7B" fill-rule="evenodd"/><text fill="#FFFFFF" font-family="Times New Roman,Times New Roman_MSFontService,sans-serif" font-weight="400" font-size="16" transform="translate(902.254 582)">Softmax</text><path d="M930.326 198 930.326 211.346 874 211.346 875 210.346 875 216.025 873 216.025 873 209.346 929.326 209.346 928.326 210.346 928.326 198ZM878 214.692 874 222.692 870 214.692Z"/><path d="M0-1 13.2067-1 13.2067 55.5351 12.2067 54.5351 17.7468 54.5351 17.7468 56.5351 11.2067 56.5351 11.2067 0 12.2067 1 0 1ZM16.4134 51.5351 24.4134 55.5351 16.4134 59.5351Z" transform="matrix(1.83697e-16 1 1 -1.83697e-16 929 198)"/><path d="M0-1 10.6352-1 10.6352 0.000104987 9.63517-0.999895 12.6036-0.999895 12.6036 1.0001 8.63517 1.0001 8.63517 0 9.63517 1 0 1ZM11.2702-3.99989 19.2702 0.000104987 11.2702 4.0001Z" transform="matrix(1.83697e-16 1 1 -1.83697e-16 874 143)"/><path d="M0-1 10.8375-1 10.8375 0.226982 9.83753-0.773018 13.0084-0.773018 13.0084 1.22698 8.83753 1.22698 8.83753 0 9.83753 1 0 1ZM11.6751-3.77302 19.6751 0.226982 11.6751 4.22698Z" transform="matrix(1.83697e-16 1 1 -1.83697e-16 985 142)"/><path d="M875 252 875 262.707 874 262.707 875 261.707 875 264.747 873 264.747 873 260.707 874 260.707 873 261.707 873 252ZM878 263.413 874 271.413 870 263.413Z"/><path d="M0-1 11.0006-1 11.0006 0.000104987 10.0006-0.999895 13.3346-0.999895 13.3346 1.0001 9.00063 1.0001 9.00063 0 10.0006 1 0 1ZM12.0013-3.99989 20.0013 0.000104987 12.0013 4.0001Z" transform="matrix(1.83697e-16 1 1 -1.83697e-16 985 252)"/><path d="M930.326 308 930.326 321.346 874 321.346 875 320.346 875 326.025 873 326.025 873 319.346 929.326 319.346 928.326 320.346 928.326 308ZM878 324.692 874 332.692 870 324.692Z"/><path d="M0-1 13.2067-1 13.2067 55.5351 12.2067 54.5351 17.7468 54.5351 17.7468 56.5351 11.2067 56.5351 11.2067 0 12.2067 1 0 1ZM16.4134 51.5351 24.4134 55.5351 16.4134 59.5351Z" transform="matrix(1.83697e-16 1 1 -1.83697e-16 930 308)"/><path d="M0-1 13.5501-1 13.5501 55.3861 12.5501 54.3861 18.4335 54.3861 18.4335 56.3861 11.5501 56.3861 11.5501 0 12.5501 1 0 1ZM17.1002 51.3861 25.1002 55.3861 17.1002 59.3861Z" transform="matrix(1.83697e-16 1 1 -1.83697e-16 874 363)"/><path d="M985.475 363 985.475 376.689 929 376.689 930 375.689 930 381.712 928 381.712 928 374.689 984.475 374.689 983.475 375.689 983.475 363ZM933 380.379 929 388.379 925 380.379Z"/><path d="M930 431 930 440.853 929 440.853 930 439.853 930 442.039 928 442.039 928 438.853 929 438.853 928 439.853 928 431ZM933 440.705 929 448.705 925 440.705Z"/><path d="M0-1 9.4548-1 9.4548 0.000104987 8.4548-0.999895 10.2429-0.999895 10.2429 1.0001 7.4548 1.0001 7.4548 0 8.4548 1 0 1ZM8.90961-3.99989 16.9096 0.000104987 8.90961 4.0001Z" transform="matrix(1.83697e-16 1 1 -1.83697e-16 929 485)"/><path d="M930 542 930 551.243 928 551.243 928 542ZM933 549.91 929 557.91 925 549.909Z"/><path d="M888 616C888 612.686 890.686 610 894 610L967 610C970.314 610 973 612.686 973 616L973 640C973 643.314 970.314 646 967 646L894 646C890.686 646 888 643.314 888 640Z" fill="#6B99D7" fill-rule="evenodd"/><text fill="#FFFFFF" font-family="Times New Roman,Times New Roman_MSFontService,sans-serif" font-weight="400" font-size="16" transform="translate(903.254 634)">Softmax</text><path d="M0-1 9.22835-1 9.22835 1 8.22835 0 9.79003 0 9.79003 2 7.22835 2 7.22835 0 8.22835 1 0 1ZM8.45669-3 16.4567 1 8.45669 5Z" transform="matrix(1.83697e-16 1 1 -1.83697e-16 929 594)"/><path d="M1196.66 92.9999 1196.66 522.91 956.667 522.91 956.667 520.91 1195.66 520.91 1194.66 521.91 1194.66 92.9999ZM958 525.91 950 521.91 958 517.91Z"/><path d="M1096.73 148 1096.73 629.366 979.667 629.366 979.667 627.366 1095.73 627.366 1094.73 628.366 1094.73 148ZM981 632.366 973 628.366 981 624.366Z"/><path d="M997 650C997 646.686 999.686 644 1003 644L1076 644C1079.31 644 1082 646.686 1082 650L1082 674C1082 677.314 1079.31 680 1076 680L1003 680C999.686 680 997 677.314 997 674Z" fill="#6B99D7" fill-rule="evenodd"/><text fill="#FFFFFF" font-family="Times New Roman,Times New Roman_MSFontService,sans-serif" font-weight="400" font-size="16" transform="translate(1009.01 667)">O_Linear</text><path d="M1131 650C1131 646.686 1133.69 644 1137 644L1210 644C1213.31 644 1216 646.686 1216 650L1216 674C1216 677.314 1213.31 680 1210 680L1137 680C1133.69 680 1131 677.314 1131 674Z" fill="#6B99D7" fill-rule="evenodd"/><text fill="#FFFFFF" font-family="Times New Roman,Times New Roman_MSFontService,sans-serif" font-weight="400" font-size="16" transform="translate(1153.35 667)">output</text><path d="M0-1 16.4905-1 16.4905 60.0615 14.4905 60.0615 14.4905 0 15.4905 1 0 1ZM19.4905 58.7282 15.4905 66.7282 11.4905 58.7282Z" transform="matrix(1.83697e-16 1 1 -1.83697e-16 930 646)"/><path d="M1082 661 1124.2 661 1124.2 663 1082 663ZM1122.87 658 1130.87 662 1122.87 666Z"/><rect x="822.5" y="40.5001" width="447" height="645" stroke="#BDBEBC" stroke-width="3" stroke-miterlimit="8" stroke-dasharray="12 9" fill="none"/><text font-family="Microsoft YaHei,Microsoft YaHei_MSFontService,sans-serif" font-weight="700" font-size="16" transform="translate(830.87 63)">Attention</text><path d="M332 447C332 443.686 334.686 441 338 441L391 441C394.314 441 397 443.686 397 447L397 471C397 474.314 394.314 477 391 477L338 477C334.686 477 332 474.314 332 471Z" fill="#6899D0" fill-rule="evenodd"/><text fill="#FFFFFF" font-family="Times New Roman,Times New Roman_MSFontService,sans-serif" font-weight="400" font-size="16" transform="translate(354.724 464)">HS</text><path d="M280 501.167C280 498.313 282.313 496 285.167 496L339.833 496C342.687 496 345 498.313 345 501.167L345 521.833C345 524.687 342.687 527 339.833 527L285.167 527C282.313 527 280 524.687 280 521.833Z" fill="#E27F43" fill-rule="evenodd"/><text fill="#FFFFFF" font-family="Times New Roman,Times New Roman_MSFontService,sans-serif" font-weight="400" font-size="16" transform="translate(291.035 517)">Linear</text><path d="M387 501C387 498.239 389.239 496 392 496L447 496C449.761 496 452 498.239 452 501L452 521C452 523.761 449.761 526 447 526L392 526C389.239 526 387 523.761 387 521Z" fill="#7EAB55" fill-rule="evenodd"/><text fill="#FFFFFF" font-family="Times New Roman,Times New Roman_MSFontService,sans-serif" font-weight="400" font-size="16" transform="translate(398.263 517)">Linear</text><path d="M280 662C280 658.686 282.686 656 286 656L339 656C342.314 656 345 658.686 345 662L345 686C345 689.314 342.314 692 339 692L286 692C282.686 692 280 689.314 280 686Z" fill="#F0C443" fill-rule="evenodd"/><text font-family="Times New Roman,Times New Roman_MSFontService,sans-serif" font-weight="400" font-size="16" transform="translate(291.035 679)">Linear</text><path d="M292.5 619C292.5 607.678 301.454 598.5 312.5 598.5 323.546 598.5 332.5 607.678 332.5 619 332.5 630.322 323.546 639.5 312.5 639.5 301.454 639.5 292.5 630.322 292.5 619Z" stroke="#172C51" stroke-width="1.33333" stroke-miterlimit="8" fill="#6C9AD3" fill-rule="evenodd"/><text fill="#FFFFFF" font-family="DengXian,DengXian_MSFontService,sans-serif" font-weight="400" font-size="24" transform="translate(304.035 626)">×</text><path d="M280 558C280 555.239 282.239 553 285 553L340 553C342.761 553 345 555.239 345 558L345 578C345 580.761 342.761 583 340 583L285 583C282.239 583 280 580.761 280 578Z" fill="#7E7C7B" fill-rule="evenodd"/><text fill="#FFFFFF" font-family="Times New Roman,Times New Roman_MSFontService,sans-serif" font-weight="400" font-size="16" transform="translate(300.451 573)">Act</text><path d="M390 662C390 658.686 392.686 656 396 656L449 656C452.314 656 455 658.686 455 662L455 686C455 689.314 452.314 692 449 692L396 692C392.686 692 390 689.314 390 686Z" fill="#6899D0" fill-rule="evenodd"/><text fill="#FFFFFF" font-family="Times New Roman,Times New Roman_MSFontService,sans-serif" font-weight="400" font-size="16" transform="translate(412.729 679)">HS</text><path d="M0-1 21.3732-1 21.3732 31.1827 19.3732 31.1827 19.3732 0 20.3732 1 0 1ZM24.3732 29.8493 20.3732 37.8493 16.3732 29.8493Z" transform="matrix(-1 1.22465e-16 1.22465e-16 1 332.373 459)"/><path d="M397 458 419.888 458 419.888 489.904 417.888 489.904 417.888 459 418.888 460 397 460ZM422.888 488.571 418.888 496.571 414.888 488.571Z"/><path d="M313 527 313 546.455 311 546.455 311 527ZM316 545.122 312 553.122 308 545.122Z"/><path d="M1-6.94637e-06 1.00006 8.44724-0.999941 8.44725-1 6.94637e-06ZM4.00005 7.11388 0.000104987 15.1139-3.99995 7.11394Z" transform="matrix(-1 0 0 1 312 583)"/><path d="M313 639 313 649.531 311 649.531 311 639ZM316 648.197 312 656.198 308 648.198Z"/><path d="M419.855 526 419.855 619.115 338.667 619.115 338.667 617.115 418.855 617.115 417.855 618.115 417.855 526ZM340 622.115 332 618.115 340 614.115Z"/><path d="M345 673 384.228 673 384.228 675 345 675ZM382.895 670 390.895 674 382.895 678Z"/><rect x="270.5" y="429.5" width="195" height="271" stroke="#BDBEBC" stroke-width="3" stroke-miterlimit="8" stroke-dasharray="12 9" fill="none"/><text font-family="Microsoft YaHei,Microsoft YaHei_MSFontService,sans-serif" font-weight="700" font-size="16" transform="translate(280.155 452)">MLP</text><path d="M0.780945-0.6246 5.77774 5.62296 4.21585 6.87216-0.780945 0.6246ZM9.52534 10.3086 14.5221 16.5562 12.9602 17.8054 7.96345 11.5578ZM18.2697 21.2419 23.2665 27.4894 21.7046 28.7386 16.7078 22.4911ZM27.0141 32.1751 32.0109 38.4227 30.449 39.6719 25.4522 33.4243ZM35.7585 43.1083 40.7553 49.3559 39.1934 50.6051 34.1966 44.3575ZM44.5029 54.0416 49.4997 60.2891 47.9378 61.5383 42.941 55.2908ZM53.2473 64.9748 58.2441 71.2223 56.6822 72.4715 51.6854 66.224ZM60.535 69.2835 62.408 78.0295 54.2874 74.2803Z" transform="matrix(1 0 0 -1 270 302.03)"/><path d="M271.757 313.347 276.983 319.404 275.469 320.71 270.243 314.653ZM280.903 323.946 286.13 330.003 284.615 331.31 279.389 325.253ZM290.049 334.546 295.276 340.603 293.761 341.909 288.535 335.852ZM299.195 345.145 304.422 351.202 302.907 352.509 297.681 346.452ZM308.341 355.745 313.568 361.802 312.054 363.108 306.827 357.051ZM317.487 366.344 322.714 372.401 321.2 373.708 315.973 367.651ZM326.634 376.944 329.81 380.625 328.296 381.931 325.119 378.25ZM331.21 377.655 333.408 386.325 325.153 382.882Z"/><path d="M0.954519-0.298151 3.33972 7.338 1.43069 7.9343-0.954519 0.298151ZM5.12863 13.0651 7.51383 20.7013 5.60479 21.2976 3.21959 13.6614ZM9.30274 26.4284 11.6879 34.0645 9.7789 34.6608 7.3937 27.0247ZM13.4768 39.7916 15.8621 47.4278 13.953 48.0241 11.5678 40.3879ZM17.651 53.1549 20.0362 60.7911 18.1271 61.3874 15.7419 53.7512ZM21.8251 66.5182 24.2103 74.1543 22.3012 74.7506 19.916 67.1145ZM25.9992 79.8814 28.3844 87.5176 26.4753 88.1139 24.0901 80.4777ZM30.1733 93.2447 32.5585 100.881 30.6494 101.477 28.2642 93.841ZM34.3474 106.608 36.7326 114.244 34.8236 114.84 32.4384 107.204ZM38.5215 119.971 40.9067 127.607 38.9977 128.204 36.6125 120.568ZM42.6956 133.334 45.0808 140.971 43.1718 141.567 40.7866 133.931ZM46.8697 146.698 49.2549 154.334 47.3459 154.93 44.9607 147.294ZM51.0438 160.061 52.4636 164.606 50.5546 165.203 49.1348 160.657ZM54.9297 162.439 53.4968 171.268 47.2935 164.825Z" transform="matrix(1 0 0 -1 444 241.268)"/><path d="M445.974 252.773 447.791 260.564 445.843 261.018 444.026 253.227ZM449.154 266.407 450.97 274.198 449.023 274.652 447.206 266.861ZM452.333 280.041 454.15 287.832 452.202 288.286 450.385 280.495ZM455.513 293.675 457.33 301.466 455.382 301.921 453.565 294.13ZM458.692 307.309 460.509 315.1 458.562 315.555 456.745 307.764ZM461.872 320.944 463.689 328.735 461.741 329.189 459.924 321.398ZM465.052 334.578 466.869 342.369 464.921 342.823 463.104 335.032ZM468.231 348.212 470.048 356.003 468.1 356.457 466.284 348.666ZM471.411 361.846 473.228 369.637 471.28 370.091 469.463 362.3ZM474.591 375.48 476.407 383.271 474.46 383.725 472.643 375.934ZM477.77 389.114 479.587 396.905 477.639 397.36 475.822 389.569ZM480.95 402.749 482.767 410.539 480.819 410.994 479.002 403.203ZM484.129 416.383 485.946 424.174 483.999 424.628 482.182 416.837ZM487.309 430.017 489.126 437.808 487.178 438.262 485.361 430.471ZM490.489 443.651 492.306 451.442 490.358 451.896 488.541 444.105ZM493.668 457.285 495.485 465.076 493.537 465.53 491.721 457.739ZM496.848 470.919 497.234 472.577 495.287 473.031 494.9 471.373ZM499.853 470.597 497.775 479.296 492.062 472.413Z"/><path d="M0.673511-0.739177 6.58693 4.64891 5.2399 6.12727-0.673511 0.739177ZM11.022 8.68998 16.9354 14.0781 15.5884 15.5564 9.67496 10.1683ZM21.3705 18.1191 27.2839 23.5072 25.9368 24.9856 20.0234 19.5975ZM31.7189 27.5483 37.6323 32.9364 36.2853 34.4147 30.3719 29.0267ZM42.0674 36.9775 47.9808 42.3656 46.6338 43.8439 40.7204 38.4558ZM52.4159 46.4066 58.3293 51.7947 56.9823 53.2731 51.0689 47.885ZM62.7643 55.8358 68.6778 61.2239 67.3307 62.7022 61.4173 57.3141ZM73.1128 65.2649 79.0262 70.653 77.6792 72.1314 71.7658 66.7433ZM83.4613 74.6941 89.3747 80.0822 88.0277 81.5605 82.1143 76.1725ZM93.8098 84.1233 99.7232 89.5114 98.3762 90.9897 92.4627 85.6016ZM104.158 93.5524 110.072 98.9405 108.725 100.419 102.811 95.0308ZM114.507 102.982 120.42 108.37 119.073 109.848 113.16 104.46ZM124.855 112.411 130.769 117.799 129.422 119.277 123.508 113.889ZM135.204 121.84 141.117 127.228 139.77 128.706 133.857 123.318ZM145.552 131.269 145.746 131.445 144.399 132.924 144.205 132.747ZM146.781 128.33 150 136.675 141.393 134.243Z" transform="matrix(1 0 0 -1 670 252.675)"/><path d="M671.841 263.459 676.168 270.188 674.486 271.27 670.159 264.541ZM679.414 275.234 683.741 281.963 682.059 283.045 677.731 276.316ZM686.986 287.01 691.313 293.738 689.631 294.82 685.304 288.091ZM694.559 298.785 698.886 305.514 697.204 306.595 692.877 299.867ZM702.131 310.56 706.458 317.289 704.776 318.371 700.449 311.642ZM709.704 322.335 714.031 329.064 712.349 330.146 708.022 323.417ZM717.276 334.111 721.604 340.839 719.921 341.921 715.594 335.192ZM724.849 345.886 729.176 352.615 727.494 353.696 723.167 346.968ZM732.422 357.661 736.749 364.39 735.067 365.472 730.739 358.743ZM739.994 369.436 744.321 376.165 742.639 377.247 738.312 370.518ZM747.567 381.212 751.894 387.94 750.212 389.022 745.885 382.293ZM755.139 392.987 759.466 399.716 757.784 400.797 753.457 394.069ZM762.712 404.762 767.039 411.491 765.357 412.573 761.03 405.844ZM770.284 416.537 774.612 423.266 772.929 424.348 768.602 417.619ZM777.857 428.313 782.184 435.041 780.502 436.123 776.175 429.394ZM785.43 440.088 789.757 446.816 788.074 447.898 783.747 441.17ZM793.002 451.863 797.329 458.592 795.647 459.673 791.32 452.945ZM800.575 463.638 804.902 470.367 803.22 471.449 798.892 464.72ZM808.147 475.413 812.474 482.142 810.792 483.224 806.465 476.495ZM815.72 487.189 818.513 491.532 816.831 492.614 814.038 488.271ZM820.315 488.788 821.278 497.68 813.586 493.115Z"/><path d="M513.036 629.294 510.92 621.579 512.849 621.05 514.964 628.765ZM509.333 615.792 507.217 608.077 509.146 607.548 511.262 615.263ZM505.63 602.291 503.515 594.576 505.443 594.047 507.559 601.762ZM501.928 588.789 499.812 581.074 501.741 580.545 503.856 588.26ZM498.225 575.288 496.109 567.573 498.038 567.044 500.154 574.759ZM494.522 561.786 492.407 554.071 494.335 553.542 496.451 561.258ZM490.82 548.285 488.704 540.57 490.633 540.041 492.749 547.756ZM487.117 534.783 485.001 527.068 486.93 526.539 489.046 534.255ZM483.414 521.282 481.299 513.567 483.227 513.038 485.343 520.753ZM479.712 507.78 477.596 500.065 479.525 499.536 481.641 507.252ZM476.009 494.279 473.893 486.564 475.822 486.035 477.938 493.75ZM472.307 480.777 470.191 473.062 472.12 472.533 474.235 480.249ZM468.604 467.276 466.799 460.694 468.728 460.165 470.533 466.747ZM464.258 462.773 466 454 471.973 460.657Z"/><path d="M0.718458-0.695571 6.28302 5.05209 4.84611 6.44323-0.718458 0.695571ZM10.4564 9.36284 16.021 15.1105 14.5841 16.5016 9.01953 10.754ZM20.1944 19.4212 25.759 25.1689 24.3221 26.56 18.7575 20.8124ZM29.9324 29.4796 35.497 35.2273 34.0601 36.6185 28.4955 30.8708ZM39.6704 39.5381 44.8035 44.84 43.3666 46.2312 38.2335 40.9292ZM46.0315 41.7954 48.7222 50.3254 40.2838 47.36Z" transform="matrix(-1 0 0 1 514.722 641)"/></g></svg>